<svg width="28" height="24" viewBox="0 0 28 24" fill="none" xmlns="http://www.w3.org/2000/svg">
<g id="Khelmet" clip-path="url(#clip0_3808_4075)">
<path id="Vector" d="M23.4328 20.8216V19.5098C21.2736 22.245 17.9624 23.9925 14.2456 23.9925H20.3161C22.038 23.9925 23.4328 22.5737 23.4328 20.8201V20.8216Z" fill="url(#paint0_linear_3808_4075)"/>
<path id="Vector_2" d="M24.7644 3.78618V6.58621C24.8081 6.67366 24.8488 6.7581 24.888 6.84254C24.9016 6.87119 24.9152 6.90134 24.9303 6.9315C25.3856 7.02197 25.8063 7.21648 26.1667 7.48939V3.78317C26.8829 3.49668 27.3865 2.78801 27.3865 1.9587C27.3865 0.877595 26.527 -0.00146484 25.4655 -0.00146484C24.404 -0.00146484 23.54 0.877595 23.54 1.9587C23.54 2.79404 24.0452 3.50271 24.7644 3.78468V3.78618Z" fill="url(#paint1_linear_3808_4075)"/>
<path id="Vector_3" d="M15.0718 5.63788H15.0838C15.3085 5.65447 15.5136 5.49012 15.5392 5.2564V5.23077C15.5603 4.99253 15.3899 4.77692 15.1562 4.75882H15.114C14.8803 4.74224 14.6797 4.93222 14.6722 5.17046V5.19609C14.6632 5.4298 14.8426 5.61979 15.0718 5.63788Z" fill="url(#paint2_linear_3808_4075)"/>
<path id="Vector_4" d="M13.3712 4.75545C8.88698 5.06304 5.38431 7.70625 5.07822 10.9858C5.05711 11.2361 5.25313 11.4532 5.4989 11.4532H5.52453C5.74166 11.4532 5.91958 11.2843 5.94069 11.0642C6.20456 8.21741 9.36345 5.91496 13.4135 5.633C13.6426 5.61641 13.8221 5.42492 13.813 5.19121V5.16557C13.804 4.92734 13.605 4.73735 13.3712 4.75394V4.75545Z" fill="url(#paint3_linear_3808_4075)"/>
<path id="Vector_5" d="M23.4297 19.5067C24.0208 18.7588 24.5259 17.9355 24.9255 17.058C25.414 15.9889 25.7548 14.834 25.9161 13.6217C25.9885 13.0894 26.0216 12.5436 26.0216 11.9947C26.0216 10.1853 25.6266 8.46793 24.9209 6.93146H24.93C24.9164 6.9013 24.9013 6.87265 24.8878 6.8425C24.8471 6.75655 24.8079 6.67211 24.7641 6.58466C22.8251 2.68241 18.8429 0 14.2425 0C9.64218 0 5.43536 2.83923 3.55963 6.93146L3.5551 6.9405C2.13323 7.23302 1.05664 8.51316 1.05664 10.0481V13.9594C1.05664 15.5004 2.13624 16.7805 3.56113 17.067C2.85547 15.526 2.46042 13.8132 2.46042 12.0038C2.46042 11.954 2.46042 11.9043 2.46042 11.8545C2.46042 11.9012 2.46042 11.948 2.46042 11.9962C2.46042 13.8056 2.85547 15.523 3.56113 17.0595C3.96071 17.9386 4.46733 18.7603 5.05689 19.5082L5.05991 19.5127H5.05689V20.8245C5.05689 22.5766 6.45163 23.997 8.17356 23.997H14.2486C10.9419 23.997 7.95493 22.6128 5.81533 20.3797C7.95493 22.6098 10.9404 23.9925 14.2441 23.9925C17.9593 23.9925 21.2705 22.2449 23.4312 19.5097L23.4297 19.5067ZM4.18839 11.4534C4.18839 8.23874 6.82255 5.48847 10.5454 4.37268C11.6898 4.03041 12.9368 3.84042 14.2425 3.84042C19.7943 3.84042 24.2967 7.24961 24.2967 11.4519H24.3012C24.3012 15.6542 19.7989 19.0589 14.2471 19.0589C8.69527 19.0589 4.18839 15.6557 4.18839 11.4534Z" fill="url(#paint4_linear_3808_4075)"/>
<path id="Vector_6" d="M26.1622 7.49832C25.8003 7.22541 25.3796 7.0309 24.9258 6.94043C25.6314 8.4769 26.0265 10.1943 26.0265 12.0037C26.0265 12.5525 25.9918 13.0984 25.9209 13.6306C25.7596 14.8429 25.4188 15.9979 24.9303 17.067C26.3537 16.782 27.4303 15.5003 27.4303 13.9608V10.0541C27.4303 9.00313 26.9282 8.07733 26.1637 7.50134L26.1622 7.49832Z" fill="url(#paint5_linear_3808_4075)"/>
<path id="Vector_7" d="M2.19821 7.49832C2.56009 7.22541 2.98077 7.0309 3.43463 6.94043C2.72896 8.4769 2.33392 10.1943 2.33392 12.0037C2.33392 12.5525 2.36859 13.0984 2.43946 13.6306C2.6008 14.8429 2.94157 15.9979 3.4301 17.067C2.00672 16.7805 0.931641 15.4988 0.931641 13.9593V10.0526C0.931641 9.00162 1.43375 8.07582 2.19821 7.49983V7.49832Z" fill="url(#paint6_linear_3808_4075)"/>
<path id="Vector_8" fill-rule="evenodd" clip-rule="evenodd" d="M5.07827 19.5098C5.07827 19.5098 8.03662 23.9352 14.3257 24.0001H7.95218C7.95218 24.0001 5.44166 23.8794 5.07978 21.1277C5.06169 20.992 5.06772 19.5671 5.07978 19.5098H5.07827Z" fill="url(#paint7_linear_3808_4075)"/>
<path id="Vector_9" fill-rule="evenodd" clip-rule="evenodd" d="M23.4828 19.5098C23.4828 19.5098 20.5245 23.9352 14.2354 24.0001H20.6089C20.6089 24.0001 23.1194 23.8794 23.4813 21.1277C23.4994 20.992 23.4934 19.5671 23.4813 19.5098H23.4828Z" fill="url(#paint8_linear_3808_4075)"/>
</g>
<defs>
<linearGradient id="paint0_linear_3808_4075" x1="14.1642" y1="29.2171" x2="32.4209" y2="4.71501" gradientUnits="userSpaceOnUse">
<stop stop-color="#9AECA4"/>
<stop offset="1" stop-color="#13678B"/>
</linearGradient>
<linearGradient id="paint1_linear_3808_4075" x1="10.4205" y1="23.7663" x2="28.6787" y2="-0.735771" gradientUnits="userSpaceOnUse">
<stop offset="0.77" stop-color="#13678B"/>
<stop offset="0.91" stop-color="#9AECA4"/>
</linearGradient>
<linearGradient id="paint2_linear_3808_4075" x1="3.26101" y1="21.0946" x2="21.5192" y2="-3.40754" gradientUnits="userSpaceOnUse">
<stop stop-color="#9AECA4"/>
<stop offset="1" stop-color="#13678B"/>
</linearGradient>
<linearGradient id="paint3_linear_3808_4075" x1="0.737199" y1="19.2124" x2="18.9939" y2="-5.28966" gradientUnits="userSpaceOnUse">
<stop offset="0.4" stop-color="#9AECA4"/>
<stop offset="0.84" stop-color="#13678B"/>
</linearGradient>
<linearGradient id="paint4_linear_3808_4075" x1="5.75652" y1="22.9536" x2="24.0147" y2="-1.54853" gradientUnits="userSpaceOnUse">
<stop offset="0.09" stop-color="#9AECA4"/>
<stop offset="0.76" stop-color="#13678B"/>
</linearGradient>
<linearGradient id="paint5_linear_3808_4075" x1="24.3619" y1="8.16327" x2="27.8992" y2="18.1179" gradientUnits="userSpaceOnUse">
<stop stop-color="#9AECA4"/>
<stop offset="0.76" stop-color="#13678B"/>
</linearGradient>
<linearGradient id="paint6_linear_3808_4075" x1="3.99855" y1="8.16327" x2="0.462709" y2="18.1179" gradientUnits="userSpaceOnUse">
<stop offset="0.4" stop-color="#9AECA4"/>
<stop offset="0.84" stop-color="#13678B"/>
</linearGradient>
<linearGradient id="paint7_linear_3808_4075" x1="7.87377" y1="24.2066" x2="11.0523" y2="19.9395" gradientUnits="userSpaceOnUse">
<stop stop-color="#9AECA4"/>
<stop offset="1" stop-color="#13678B"/>
</linearGradient>
<linearGradient id="paint8_linear_3808_4075" x1="20.6873" y1="24.2066" x2="17.5088" y2="19.9395" gradientUnits="userSpaceOnUse">
<stop stop-color="#9AECA4"/>
<stop offset="0.38" stop-color="#13678B"/>
</linearGradient>
<clipPath id="clip0_3808_4075">
<rect width="26.497" height="24" fill="white" transform="translate(0.931641)"/>
</clipPath>
</defs>
</svg>
