<svg width="111" height="24" viewBox="0 0 111 24" fill="none" xmlns="http://www.w3.org/2000/svg">
<g id="Union">
<path d="M5.73447 21.2997V2.70032C5.73447 1.21168 4.54407 0 3.08159 0C1.61911 0 0.428711 1.20736 0.428711 2.70032V21.2997C0.428711 22.7926 1.61485 24 3.08159 24C4.54833 24 5.73447 22.7926 5.73447 21.2997Z" fill="url(#paint0_linear_3808_4086)"/>
<path d="M16.5841 23.9957C18.5227 23.9957 19.6663 21.7887 18.5737 20.1616L13.1022 12.0173L18.578 3.83844C19.6706 2.207 18.5227 0 16.5841 0C15.8061 0 15.0791 0.380815 14.6242 1.02993L10.0794 7.48648L8.6552 9.55067L8.64244 9.56798L6.98014 11.9481L7.01415 12.0216L6.98014 12.0563L8.63819 14.432L8.65094 14.4537L10.0752 16.4789L14.6242 22.9701C15.0748 23.6149 15.8061 23.9957 16.5841 23.9957Z" fill="url(#paint1_linear_3808_4086)"/>
<path d="M35.3243 14.0469H33.3771C32.4248 14.0469 31.5958 14.7003 31.362 15.6394C31.0261 16.9809 32.0209 18.2834 33.3771 18.2834H36.3914L37.2927 21.9834C37.5818 23.1648 38.6234 23.9957 39.818 23.9957C41.5654 23.9957 42.8153 22.2734 42.3051 20.5727L37.0334 3.06383C36.4807 1.2463 34.8311 0 32.9605 0C31.0899 0 29.4361 1.2463 28.8877 3.06816L23.6032 20.6982C23.11 22.3383 24.3174 23.9957 26.0009 23.9957C27.1488 23.9957 28.1522 23.2038 28.4328 22.07L29.3766 18.2834L30.4437 14.0426L30.9793 11.8312C31.583 9.43383 32.225 6.63397 32.7947 4.08943H32.935C33.424 6.41762 34.0628 8.96085 34.6286 11.2137L34.629 11.2152L34.7163 11.5629L34.7844 11.8312L35.32 14.0426L35.3243 14.0469Z" fill="url(#paint2_linear_3808_4086)"/>
<path d="M47.8787 2.6657V23.9957H54.2813C61.0113 23.9957 65.4243 20.3433 65.4243 12.1255C65.4243 4.89001 61.8361 1.02128 56.6111 0.177425C55.3527 -0.0259647 54.3153 1.05157 54.3153 2.34547C54.3153 3.51388 55.1826 4.45294 56.2667 4.84241C58.5668 5.66895 60.0462 7.56437 60.0462 12.1255C60.0462 17.8767 57.5932 19.6466 53.9965 19.6466H53.1079V2.66138C53.1079 1.19437 51.9388 0 50.4933 0C49.0478 0 47.8787 1.19437 47.8787 2.6657Z" fill="url(#paint3_linear_3808_4086)"/>
<path d="M76.1548 19.4259V4.53516H84.037C85.2656 4.53516 86.2647 3.51821 86.2647 2.26758C86.2647 1.01695 85.2656 0 84.037 0H70.8873V23.9957H84.3771C85.6185 23.9957 86.6218 22.9744 86.6218 21.7108C86.6218 20.4472 85.6185 19.4259 84.3771 19.4259H76.1548Z" fill="url(#paint4_linear_3808_4086)"/>
<path d="M84.7342 11.6278C84.7342 12.8785 83.7351 13.8954 82.5064 13.8954H79.6282C78.3996 13.8954 77.4005 12.8785 77.4005 11.6278C77.4005 10.3772 78.3996 9.36026 79.6282 9.36026H82.5064C83.7351 9.36026 84.7342 10.3772 84.7342 11.6278Z" fill="url(#paint5_linear_3808_4086)"/>
<path d="M90.5586 2.26758C90.5586 1.01695 91.5535 0 92.7864 0H107.841C109.069 0 110.068 1.01695 110.068 2.26758C110.068 3.51821 109.069 4.53516 107.841 4.53516H92.7864C91.5577 4.53516 90.5586 3.51821 90.5586 2.26758Z" fill="url(#paint6_linear_3808_4086)"/>
<path d="M97.854 21.3127C97.854 22.797 99.036 23.9957 100.49 23.9957V24C101.948 24 103.126 22.797 103.126 21.317V8.36062C103.126 6.87631 101.948 5.6776 100.49 5.6776C99.0317 5.6776 97.854 6.88063 97.854 8.36062V21.3127Z" fill="url(#paint7_linear_3808_4086)"/>
</g>
<defs>
<linearGradient id="paint0_linear_3808_4086" x1="12.2793" y1="2.7647" x2="85.3289" y2="77.4201" gradientUnits="userSpaceOnUse">
<stop stop-color="#9AECA4"/>
<stop offset="1" stop-color="#13678B"/>
</linearGradient>
<linearGradient id="paint1_linear_3808_4086" x1="12.2793" y1="2.7647" x2="85.3289" y2="77.4201" gradientUnits="userSpaceOnUse">
<stop stop-color="#9AECA4"/>
<stop offset="1" stop-color="#13678B"/>
</linearGradient>
<linearGradient id="paint2_linear_3808_4086" x1="12.2793" y1="2.7647" x2="85.3289" y2="77.4201" gradientUnits="userSpaceOnUse">
<stop stop-color="#9AECA4"/>
<stop offset="1" stop-color="#13678B"/>
</linearGradient>
<linearGradient id="paint3_linear_3808_4086" x1="12.2793" y1="2.7647" x2="85.3289" y2="77.4201" gradientUnits="userSpaceOnUse">
<stop stop-color="#9AECA4"/>
<stop offset="1" stop-color="#13678B"/>
</linearGradient>
<linearGradient id="paint4_linear_3808_4086" x1="12.2793" y1="2.7647" x2="85.3289" y2="77.4201" gradientUnits="userSpaceOnUse">
<stop stop-color="#9AECA4"/>
<stop offset="1" stop-color="#13678B"/>
</linearGradient>
<linearGradient id="paint5_linear_3808_4086" x1="12.2793" y1="2.7647" x2="85.3289" y2="77.4201" gradientUnits="userSpaceOnUse">
<stop stop-color="#9AECA4"/>
<stop offset="1" stop-color="#13678B"/>
</linearGradient>
<linearGradient id="paint6_linear_3808_4086" x1="12.2793" y1="2.7647" x2="85.3289" y2="77.4201" gradientUnits="userSpaceOnUse">
<stop stop-color="#9AECA4"/>
<stop offset="1" stop-color="#13678B"/>
</linearGradient>
<linearGradient id="paint7_linear_3808_4086" x1="12.2793" y1="2.7647" x2="85.3289" y2="77.4201" gradientUnits="userSpaceOnUse">
<stop stop-color="#9AECA4"/>
<stop offset="1" stop-color="#13678B"/>
</linearGradient>
</defs>
</svg>
